<?xml version="1.0" encoding="UTF-8" standalone="no"?>
<svg width="194px" height="178px" viewBox="0 0 194 178" version="1.1" xmlns="http://www.w3.org/2000/svg" xmlns:xlink="http://www.w3.org/1999/xlink" xmlns:sketch="http://www.bohemiancoding.com/sketch/ns">
    <!-- Generator: Sketch 3.5.2 (25235) - http://www.bohemiancoding.com/sketch -->
    <title>headphones</title>
    <desc>Created with Sketch.</desc>
    <defs></defs>
    <g id="Page-1" stroke="none" stroke-width="1" fill="none" fill-rule="evenodd" sketch:type="MSPage">
        <g id="headphones" sketch:type="MSLayerGroup" transform="translate(0.000000, 1.000000)">
            <path d="M186.2544,137.9508 C190.3044,127.3278 192.5294,115.8028 192.5294,103.7578 C192.5294,77.2438 181.7824,53.2408 164.4074,35.8648" id="Stroke-1" stroke="#F1404B" sketch:type="MSShapeGroup"></path>
            <path d="M28.6221,35.865 C11.2471,53.24 0.5001,77.244 0.5001,103.758 C0.5001,115.803 2.7251,127.328 6.7751,137.951" id="Stroke-3" stroke="#F1404B" sketch:type="MSShapeGroup"></path>
            <path d="M32.3585,176.5 L41.4995,176.5 C47.2345,176.5 51.8835,171.851 51.8835,166.115 L51.8835,121.786 C51.8835,116.051 47.2345,111.402 41.4995,111.402 L32.3585,111.402 C26.6235,111.402 21.9735,116.051 21.9735,121.786 L21.9735,166.115 C21.9735,171.851 26.6235,176.5 32.3585,176.5" id="Fill-5" fill="#FFFFFF" sketch:type="MSShapeGroup"></path>
            <path d="M32.3585,176.5 L41.4995,176.5 C47.2345,176.5 51.8835,171.851 51.8835,166.115 L51.8835,121.786 C51.8835,116.051 47.2345,111.402 41.4995,111.402 L32.3585,111.402 C26.6235,111.402 21.9735,116.051 21.9735,121.786 L21.9735,166.115 C21.9735,171.851 26.6235,176.5 32.3585,176.5 L32.3585,176.5 Z" id="Stroke-7" stroke="#252C41" sketch:type="MSShapeGroup"></path>
            <path d="M12.6354,170.5929 L12.6354,170.5929 C17.6804,170.5929 21.7704,166.5029 21.7704,161.4579 L21.7704,126.4439 C21.7704,121.3989 17.6804,117.3089 12.6354,117.3089 L12.6354,117.3089 C7.5904,117.3089 3.5004,121.3989 3.5004,126.4439 L3.5004,161.4579 C3.5004,166.5029 7.5904,170.5929 12.6354,170.5929" id="Fill-9" fill="#FFFFFF" sketch:type="MSShapeGroup"></path>
            <path d="M12.6354,170.5929 L12.6354,170.5929 C17.6804,170.5929 21.7704,166.5029 21.7704,161.4579 L21.7704,126.4439 C21.7704,121.3989 17.6804,117.3089 12.6354,117.3089 L12.6354,117.3089 C7.5904,117.3089 3.5004,121.3989 3.5004,126.4439 L3.5004,161.4579 C3.5004,166.5029 7.5904,170.5929 12.6354,170.5929 L12.6354,170.5929 Z" id="Stroke-11" stroke="#252C41" sketch:type="MSShapeGroup"></path>
            <path d="M160.6707,111.4016 L151.5297,111.4016 C145.7947,111.4016 141.1457,116.0506 141.1457,121.7866 L141.1457,166.1156 C141.1457,171.8506 145.7947,176.4996 151.5297,176.4996 L160.6707,176.4996 C166.4057,176.4996 171.0557,171.8506 171.0557,166.1156 L171.0557,121.7866 C171.0557,116.0506 166.4057,111.4016 160.6707,111.4016" id="Fill-13" fill="#FFFFFF" sketch:type="MSShapeGroup"></path>
            <path d="M160.6707,111.4016 L151.5297,111.4016 C145.7947,111.4016 141.1457,116.0506 141.1457,121.7866 L141.1457,166.1156 C141.1457,171.8506 145.7947,176.4996 151.5297,176.4996 L160.6707,176.4996 C166.4057,176.4996 171.0557,171.8506 171.0557,166.1156 L171.0557,121.7866 C171.0557,116.0506 166.4057,111.4016 160.6707,111.4016 L160.6707,111.4016 Z" id="Stroke-15" stroke="#252C41" sketch:type="MSShapeGroup"></path>
            <path d="M180.3937,117.3087 L180.3937,117.3087 C175.3487,117.3087 171.2587,121.3987 171.2587,126.4437 L171.2587,161.4577 C171.2587,166.5027 175.3487,170.5927 180.3937,170.5927 L180.3937,170.5927 C185.4387,170.5927 189.5287,166.5027 189.5287,161.4577 L189.5287,126.4437 C189.5287,121.3987 185.4387,117.3087 180.3937,117.3087" id="Fill-17" fill="#FFFFFF" sketch:type="MSShapeGroup"></path>
            <path d="M180.3937,117.3087 L180.3937,117.3087 C175.3487,117.3087 171.2587,121.3987 171.2587,126.4437 L171.2587,161.4577 C171.2587,166.5027 175.3487,170.5927 180.3937,170.5927 L180.3937,170.5927 C185.4387,170.5927 189.5287,166.5027 189.5287,161.4577 L189.5287,126.4437 C189.5287,121.3987 185.4387,117.3087 180.3937,117.3087 L180.3937,117.3087 Z" id="Stroke-19" stroke="#252C41" sketch:type="MSShapeGroup"></path>
            <path d="M23.3532,30.5962 L33.9552,41.1982 C49.9832,25.1702 72.1112,15.2432 96.5152,15.2432 C120.9182,15.2432 143.0472,25.1702 159.0742,41.1982 L169.6762,30.5962 C150.9322,11.8522 125.0542,0.2432 96.5152,0.2432 C67.9762,0.2432 42.0972,11.8522 23.3532,30.5962" id="Fill-21" fill="#FFFFFF" sketch:type="MSShapeGroup"></path>
            <path d="M23.3532,30.5962 L33.9552,41.1982 C49.9832,25.1702 72.1112,15.2432 96.5152,15.2432 C120.9182,15.2432 143.0472,25.1702 159.0742,41.1982 L169.6762,30.5962 C150.9322,11.8522 125.0542,0.2432 96.5152,0.2432 C67.9762,0.2432 42.0972,11.8522 23.3532,30.5962 L23.3532,30.5962 Z" id="Stroke-23" stroke="#252C41" sketch:type="MSShapeGroup"></path>
        </g>
    </g>
</svg>